<?xml version="1.0" encoding="utf-8"?>
<!-- Generator: Adobe Illustrator 25.3.1, SVG Export Plug-In . SVG Version: 6.00 Build 0)  -->
<svg version="1.1" id="Layer_1" xmlns="http://www.w3.org/2000/svg" xmlns:xlink="http://www.w3.org/1999/xlink" x="0px" y="0px"
	 viewBox="0 0 100 100" style="enable-background:new 0 0 100 100;" xml:space="preserve">
<g>
	<path d="M56,82.9v-3.4c6.3-0.9,6.6-1.9,5.2-6c-1.1-3.3-2.8-7.9-4.5-12.7H36.6c-1.3,3.6-2.7,7.4-3.8,10.8c-2.1,6.3-0.1,7.1,7.8,7.9
		v3.4H16.8v-3.4c6.2-0.8,7.8-1.6,11.2-10.1l20.6-51.5l4.2-0.8C59.1,34.2,65.8,52.3,72.2,69c3.5,9,4.4,9.7,11,10.5v3.4H56z
		 M46.9,33.6c-3,7.6-6,15.1-8.6,22.5H55L46.9,33.6z"/>
</g>
</svg>
