<svg id="Layer_1" data-name="Layer 1" xmlns="http://www.w3.org/2000/svg" viewBox="0 0 1348.05 388.95"><defs><style>.cls-1{fill:none;stroke:#000;stroke-miterlimit:10;stroke-width:17px;}</style></defs><path class="cls-1" d="M1072.94,223.53s-164.83,186-368.15,186-368.16-186-368.16-186,164.83-186,368.16-186S1072.94,223.53,1072.94,223.53Z" transform="translate(-32.01 -29.05)"/><path class="cls-1" d="M1368.7,223.53s-164.83,186-368.16,186-368.15-186-368.15-186,164.83-186,368.15-186S1368.7,223.53,1368.7,223.53Z" transform="translate(-32.01 -29.05)"/><path class="cls-1" d="M779.68,223.53s-164.83,186-368.16,186-368.15-186-368.15-186,164.83-186,368.15-186S779.68,223.53,779.68,223.53Z" transform="translate(-32.01 -29.05)"/></svg>